<svg width="136" height="13" viewBox="0 0 136 13" fill="none" xmlns="http://www.w3.org/2000/svg">
<path d="M5.13 0.299999L4.86 7.32L5.076 12H2.556L2.772 7.626L2.628 3.144L0.108 3.162V1.992L5.13 0.299999ZM8.09409 0.84C9.10209 0.48 10.1041 0.299999 11.1001 0.299999C12.0961 0.299999 12.9121 0.551999 13.5481 1.056C14.1841 1.56 14.5021 2.196 14.5021 2.964C14.5021 3.564 14.3461 4.092 14.0341 4.548C13.7221 4.992 13.2781 5.328 12.7021 5.556C13.5421 5.868 14.1481 6.258 14.5201 6.726C14.8921 7.182 15.0781 7.764 15.0781 8.472C15.0781 9.552 14.6581 10.446 13.8181 11.154C12.9901 11.85 11.9341 12.198 10.6501 12.198C10.0381 12.198 9.43809 12.12 8.85009 11.964C8.27409 11.796 7.84809 11.628 7.57209 11.46L7.15809 11.208L7.91409 9.03C8.02209 9.126 8.16609 9.246 8.34609 9.39C8.52609 9.534 8.86809 9.732 9.37209 9.984C9.88809 10.224 10.4041 10.344 10.9201 10.344C11.4361 10.344 11.8861 10.206 12.2701 9.93C12.6541 9.642 12.8461 9.24 12.8461 8.724C12.8461 8.208 12.6181 7.782 12.1621 7.446C11.7181 7.11 11.1001 6.942 10.3081 6.942H8.76009L9.08409 5.196H10.0741C10.7341 5.196 11.2501 5.046 11.6221 4.746C11.9941 4.446 12.1801 4.062 12.1801 3.594C12.1801 3.126 12.0241 2.766 11.7121 2.514C11.4001 2.25 11.0221 2.118 10.5781 2.118C10.1461 2.118 9.69609 2.196 9.22809 2.352C8.77209 2.496 8.26809 2.718 7.71609 3.018L8.09409 0.84ZM16.8832 0.84C17.8912 0.48 18.8932 0.299999 19.8892 0.299999C20.8852 0.299999 21.7012 0.551999 22.3372 1.056C22.9732 1.56 23.2912 2.196 23.2912 2.964C23.2912 3.564 23.1352 4.092 22.8232 4.548C22.5112 4.992 22.0672 5.328 21.4912 5.556C22.3312 5.868 22.9372 6.258 23.3092 6.726C23.6812 7.182 23.8672 7.764 23.8672 8.472C23.8672 9.552 23.4472 10.446 22.6072 11.154C21.7792 11.85 20.7232 12.198 19.4392 12.198C18.8272 12.198 18.2272 12.12 17.6392 11.964C17.0632 11.796 16.6372 11.628 16.3612 11.46L15.9472 11.208L16.7032 9.03C16.8112 9.126 16.9552 9.246 17.1352 9.39C17.3152 9.534 17.6572 9.732 18.1612 9.984C18.6772 10.224 19.1932 10.344 19.7092 10.344C20.2252 10.344 20.6752 10.206 21.0592 9.93C21.4432 9.642 21.6352 9.24 21.6352 8.724C21.6352 8.208 21.4072 7.782 20.9512 7.446C20.5072 7.11 19.8892 6.942 19.0972 6.942H17.5492L17.8732 5.196H18.8632C19.5232 5.196 20.0392 5.046 20.4112 4.746C20.7832 4.446 20.9692 4.062 20.9692 3.594C20.9692 3.126 20.8132 2.766 20.5012 2.514C20.1892 2.25 19.8112 2.118 19.3672 2.118C18.9352 2.118 18.4852 2.196 18.0172 2.352C17.5612 2.496 17.0572 2.718 16.5052 3.018L16.8832 0.84ZM30.2082 0.317999C31.4442 0.317999 32.4342 0.809999 33.1782 1.794C33.9342 2.766 34.3122 4.056 34.3122 5.664C34.3122 7.692 33.8562 9.288 32.9442 10.452C32.0442 11.616 30.8022 12.198 29.2182 12.198C28.0062 12.198 27.0162 11.706 26.2482 10.722C25.4922 9.726 25.1142 8.43 25.1142 6.834C25.1142 4.926 25.5882 3.366 26.5362 2.154C27.4962 0.929999 28.7202 0.317999 30.2082 0.317999ZM29.7942 10.434C30.5622 10.434 31.0962 10.14 31.3962 9.552C31.7082 8.964 31.8642 7.92 31.8642 6.42C31.8642 4.92 31.7082 3.87 31.3962 3.27C31.0842 2.658 30.5382 2.352 29.7582 2.352C28.9782 2.352 28.4142 2.64 28.0662 3.216C27.7302 3.78 27.5622 4.77 27.5622 6.186C27.5622 7.59 27.7422 8.652 28.1022 9.372C28.4622 10.08 29.0262 10.434 29.7942 10.434ZM40.4554 3.594C40.4554 2.922 40.0474 2.586 39.2314 2.586C38.7274 2.586 38.1694 2.694 37.5574 2.91C36.9574 3.114 36.4774 3.324 36.1174 3.54L35.5954 3.846L36.0814 1.272C36.5494 1.02 37.1134 0.797999 37.7734 0.606C38.4334 0.401999 39.0154 0.299999 39.5194 0.299999C40.5394 0.299999 41.3554 0.564 41.9674 1.092C42.5914 1.608 42.9034 2.298 42.9034 3.162C42.9034 4.326 42.2914 5.538 41.0674 6.798L37.9354 10.038L43.5514 9.714L43.2454 12.108L39.5014 11.946L35.2534 12.072L35.5414 10.182L39.3214 5.826C40.0774 4.974 40.4554 4.23 40.4554 3.594ZM44.3936 8.508L44.2496 6.87L48.4976 6.114L48.6416 7.752L44.3936 8.508ZM54.4652 3.594C54.4652 2.922 54.0572 2.586 53.2412 2.586C52.7372 2.586 52.1792 2.694 51.5672 2.91C50.9672 3.114 50.4872 3.324 50.1272 3.54L49.6052 3.846L50.0912 1.272C50.5592 1.02 51.1232 0.797999 51.7832 0.606C52.4432 0.401999 53.0252 0.299999 53.5292 0.299999C54.5492 0.299999 55.3652 0.564 55.9772 1.092C56.6012 1.608 56.9132 2.298 56.9132 3.162C56.9132 4.326 56.3012 5.538 55.0772 6.798L51.9452 10.038L57.5612 9.714L57.2552 12.108L53.5112 11.946L49.2632 12.072L49.5512 10.182L53.3312 5.826C54.0872 4.974 54.4652 4.23 54.4652 3.594ZM59.0154 11.388L63.5334 2.496L58.1154 2.91L58.5114 0.426L62.3094 0.623999L65.9094 0.407999L65.6394 2.334L62.7234 8.364L61.5714 12.198L59.0154 11.388ZM66.7434 9.21C66.7434 8.574 66.9654 8.028 67.4094 7.572C67.8534 7.104 68.3454 6.732 68.8854 6.456C67.7334 5.772 67.1574 4.914 67.1574 3.882C67.1574 2.838 67.5294 1.98 68.2734 1.308C69.0174 0.635999 69.8994 0.299999 70.9194 0.299999C71.9394 0.299999 72.7674 0.545999 73.4034 1.038C74.0514 1.53 74.3754 2.142 74.3754 2.874C74.3754 3.822 73.8114 4.752 72.6834 5.664C73.4034 6 73.9674 6.39 74.3754 6.834C74.7954 7.278 75.0054 7.836 75.0054 8.508C75.0054 9.516 74.5734 10.386 73.7094 11.118C72.8574 11.838 71.8614 12.198 70.7214 12.198C69.5934 12.198 68.6454 11.904 67.8774 11.316C67.1214 10.728 66.7434 10.026 66.7434 9.21ZM72.3594 8.076C71.9154 7.812 71.4414 7.584 70.9374 7.392C70.4334 7.188 70.0914 7.044 69.9114 6.96C69.1314 7.476 68.7414 7.998 68.7414 8.526C68.7414 9.054 68.9514 9.48 69.3714 9.804C69.7914 10.128 70.3134 10.29 70.9374 10.29C71.5734 10.29 72.0774 10.176 72.4494 9.948C72.8334 9.708 73.0254 9.402 73.0254 9.03C73.0254 8.646 72.8034 8.328 72.3594 8.076ZM69.1374 3.306C69.1374 3.618 69.2334 3.858 69.4254 4.026C69.6174 4.194 69.7674 4.32 69.8754 4.404C69.9834 4.476 70.1634 4.572 70.4154 4.692C70.8594 4.896 71.2554 5.064 71.6034 5.196C72.1554 4.5 72.4314 3.948 72.4314 3.54C72.4314 3.12 72.2694 2.79 71.9454 2.55C71.6334 2.298 71.2314 2.172 70.7394 2.172C70.2594 2.172 69.8694 2.28 69.5694 2.496C69.2814 2.712 69.1374 2.982 69.1374 3.306ZM76.6839 0.84C77.6919 0.48 78.6939 0.299999 79.6899 0.299999C80.6859 0.299999 81.5019 0.551999 82.1379 1.056C82.7739 1.56 83.0919 2.196 83.0919 2.964C83.0919 3.564 82.9359 4.092 82.6239 4.548C82.3119 4.992 81.8679 5.328 81.2919 5.556C82.1319 5.868 82.7379 6.258 83.1099 6.726C83.4819 7.182 83.6679 7.764 83.6679 8.472C83.6679 9.552 83.2479 10.446 82.4079 11.154C81.5799 11.85 80.5239 12.198 79.2399 12.198C78.6279 12.198 78.0279 12.12 77.4399 11.964C76.8639 11.796 76.4379 11.628 76.1619 11.46L75.7479 11.208L76.5039 9.03C76.6119 9.126 76.7559 9.246 76.9359 9.39C77.1159 9.534 77.4579 9.732 77.9619 9.984C78.4779 10.224 78.9939 10.344 79.5099 10.344C80.0259 10.344 80.4759 10.206 80.8599 9.93C81.2439 9.642 81.4359 9.24 81.4359 8.724C81.4359 8.208 81.2079 7.782 80.7519 7.446C80.3079 7.11 79.6899 6.942 78.8979 6.942H77.3499L77.6739 5.196H78.6639C79.3239 5.196 79.8399 5.046 80.2119 4.746C80.5839 4.446 80.7699 4.062 80.7699 3.594C80.7699 3.126 80.6139 2.766 80.3019 2.514C79.9899 2.25 79.6119 2.118 79.1679 2.118C78.7359 2.118 78.2859 2.196 77.8179 2.352C77.3619 2.496 76.8579 2.718 76.3059 3.018L76.6839 0.84ZM84.555 7.536L88.839 0.786L91.809 0.426L91.557 7.392L93.285 7.32L93.105 9.138L91.665 9.102L91.773 12H89.253L89.433 9.066L84.411 9.084L84.555 7.536ZM89.379 2.748L86.517 7.374L89.469 7.356L89.379 2.748ZM95.1234 0.84C96.1314 0.48 97.1334 0.299999 98.1294 0.299999C99.1254 0.299999 99.9414 0.551999 100.577 1.056C101.213 1.56 101.531 2.196 101.531 2.964C101.531 3.564 101.375 4.092 101.063 4.548C100.751 4.992 100.307 5.328 99.7314 5.556C100.571 5.868 101.177 6.258 101.549 6.726C101.921 7.182 102.107 7.764 102.107 8.472C102.107 9.552 101.687 10.446 100.847 11.154C100.019 11.85 98.9634 12.198 97.6794 12.198C97.0674 12.198 96.4674 12.12 95.8794 11.964C95.3034 11.796 94.8774 11.628 94.6014 11.46L94.1874 11.208L94.9434 9.03C95.0514 9.126 95.1954 9.246 95.3754 9.39C95.5554 9.534 95.8974 9.732 96.4014 9.984C96.9174 10.224 97.4334 10.344 97.9494 10.344C98.4654 10.344 98.9154 10.206 99.2994 9.93C99.6834 9.642 99.8754 9.24 99.8754 8.724C99.8754 8.208 99.6474 7.782 99.1914 7.446C98.7474 7.11 98.1294 6.942 97.3374 6.942H95.7894L96.1134 5.196H97.1034C97.7634 5.196 98.2794 5.046 98.6514 4.746C99.0234 4.446 99.2094 4.062 99.2094 3.594C99.2094 3.126 99.0534 2.766 98.7414 2.514C98.4294 2.25 98.0514 2.118 97.6074 2.118C97.1754 2.118 96.7254 2.196 96.2574 2.352C95.8014 2.496 95.2974 2.718 94.7454 3.018L95.1234 0.84ZM108.412 3.594C108.412 2.922 108.004 2.586 107.188 2.586C106.684 2.586 106.126 2.694 105.514 2.91C104.914 3.114 104.434 3.324 104.074 3.54L103.552 3.846L104.038 1.272C104.506 1.02 105.07 0.797999 105.73 0.606C106.39 0.401999 106.972 0.299999 107.476 0.299999C108.496 0.299999 109.312 0.564 109.924 1.092C110.548 1.608 110.86 2.298 110.86 3.162C110.86 4.326 110.248 5.538 109.024 6.798L105.892 10.038L111.508 9.714L111.202 12.108L107.458 11.946L103.21 12.072L103.498 10.182L107.278 5.826C108.034 4.974 108.412 4.23 108.412 3.594ZM112.693 9.21C112.693 8.574 112.915 8.028 113.359 7.572C113.803 7.104 114.295 6.732 114.835 6.456C113.683 5.772 113.107 4.914 113.107 3.882C113.107 2.838 113.479 1.98 114.223 1.308C114.967 0.635999 115.849 0.299999 116.869 0.299999C117.889 0.299999 118.717 0.545999 119.353 1.038C120.001 1.53 120.325 2.142 120.325 2.874C120.325 3.822 119.761 4.752 118.633 5.664C119.353 6 119.917 6.39 120.325 6.834C120.745 7.278 120.955 7.836 120.955 8.508C120.955 9.516 120.523 10.386 119.659 11.118C118.807 11.838 117.811 12.198 116.671 12.198C115.543 12.198 114.595 11.904 113.827 11.316C113.071 10.728 112.693 10.026 112.693 9.21ZM118.309 8.076C117.865 7.812 117.391 7.584 116.887 7.392C116.383 7.188 116.041 7.044 115.861 6.96C115.081 7.476 114.691 7.998 114.691 8.526C114.691 9.054 114.901 9.48 115.321 9.804C115.741 10.128 116.263 10.29 116.887 10.29C117.523 10.29 118.027 10.176 118.399 9.948C118.783 9.708 118.975 9.402 118.975 9.03C118.975 8.646 118.753 8.328 118.309 8.076ZM115.087 3.306C115.087 3.618 115.183 3.858 115.375 4.026C115.567 4.194 115.717 4.32 115.825 4.404C115.933 4.476 116.113 4.572 116.365 4.692C116.809 4.896 117.205 5.064 117.553 5.196C118.105 4.5 118.381 3.948 118.381 3.54C118.381 3.12 118.219 2.79 117.895 2.55C117.583 2.298 117.181 2.172 116.689 2.172C116.209 2.172 115.819 2.28 115.519 2.496C115.231 2.712 115.087 2.982 115.087 3.306ZM121.913 8.508L121.769 6.87L126.017 6.114L126.161 7.752L121.913 8.508ZM127.107 9.21C127.107 8.574 127.329 8.028 127.773 7.572C128.217 7.104 128.709 6.732 129.249 6.456C128.097 5.772 127.521 4.914 127.521 3.882C127.521 2.838 127.893 1.98 128.637 1.308C129.381 0.635999 130.263 0.299999 131.283 0.299999C132.303 0.299999 133.131 0.545999 133.767 1.038C134.415 1.53 134.739 2.142 134.739 2.874C134.739 3.822 134.175 4.752 133.047 5.664C133.767 6 134.331 6.39 134.739 6.834C135.159 7.278 135.369 7.836 135.369 8.508C135.369 9.516 134.937 10.386 134.073 11.118C133.221 11.838 132.225 12.198 131.085 12.198C129.957 12.198 129.009 11.904 128.241 11.316C127.485 10.728 127.107 10.026 127.107 9.21ZM132.723 8.076C132.279 7.812 131.805 7.584 131.301 7.392C130.797 7.188 130.455 7.044 130.275 6.96C129.495 7.476 129.105 7.998 129.105 8.526C129.105 9.054 129.315 9.48 129.735 9.804C130.155 10.128 130.677 10.29 131.301 10.29C131.937 10.29 132.441 10.176 132.813 9.948C133.197 9.708 133.389 9.402 133.389 9.03C133.389 8.646 133.167 8.328 132.723 8.076ZM129.501 3.306C129.501 3.618 129.597 3.858 129.789 4.026C129.981 4.194 130.131 4.32 130.239 4.404C130.347 4.476 130.527 4.572 130.779 4.692C131.223 4.896 131.619 5.064 131.967 5.196C132.519 4.5 132.795 3.948 132.795 3.54C132.795 3.12 132.633 2.79 132.309 2.55C131.997 2.298 131.595 2.172 131.103 2.172C130.623 2.172 130.233 2.28 129.933 2.496C129.645 2.712 129.501 2.982 129.501 3.306Z" fill="#5D5E5E"/>
</svg>
