<svg width="20" height="20" viewBox="0 0 20 20" fill="none" xmlns="http://www.w3.org/2000/svg">
<path fill-rule="evenodd" clip-rule="evenodd" d="M10 20C15.5228 20 20 15.5228 20 10C20 4.47715 15.5228 0 10 0C4.47715 0 0 4.47715 0 10C0 15.5228 4.47715 20 10 20Z" fill="#2CB9B0"/>
<path d="M12.4411 9.38416L10.7466 11.0635C10.3913 11.4151 10.0373 11.7667 9.68402 12.1177C9.45804 12.3417 9.0734 12.3417 8.84608 12.1177C8.77675 12.0483 8.70743 11.9795 8.63943 11.9108C8.1488 11.4237 7.6595 10.938 7.16954 10.4502C6.93556 10.2189 6.95156 9.85473 7.16954 9.6201C7.38552 9.38614 7.78816 9.40267 8.00748 9.6201C8.07747 9.68884 8.1468 9.75757 8.2148 9.82631C8.56544 10.1739 8.91608 10.5236 9.26538 10.8712C9.82068 10.3207 10.3746 9.77211 10.9293 9.22158L11.9918 8.16809C12.2258 7.93611 12.5931 7.95197 12.8298 8.16809C13.0651 8.38421 13.0484 8.78207 12.8291 8.99951C12.7005 9.12707 12.5698 9.25661 12.4411 9.38416Z" fill="white"/>
</svg>
