<svg width="375" height="362" viewBox="0 0 375 362" fill="none" xmlns="http://www.w3.org/2000/svg">
<g opacity="0.5" filter="url(#filter0_d_433_750)">
<path fill-rule="evenodd" clip-rule="evenodd" d="M61.1178 141.952C138.859 119.265 180.521 85.9686 202.737 52.8344C224.95 19.7033 227.675 -13.1985 227.675 -35H226.675C226.675 -13.288 223.961 19.3828 201.906 52.2775C179.853 85.1692 138.416 118.352 60.8376 140.992C-1.44247 159.167 -37.9581 198.305 -58.2876 239.837C-78.6093 281.354 -82.7593 325.263 -80.3352 353.04L-79.339 352.953C-81.7497 325.33 -77.6201 281.608 -57.3895 240.277C-37.1667 198.963 -0.857582 160.038 61.1178 141.952ZM191.068 141.952C268.809 119.265 310.471 85.9686 332.687 52.8344C354.9 19.7033 357.625 -13.1985 357.625 -35H356.625C356.625 -13.288 353.911 19.3828 331.856 52.2775C309.803 85.1692 268.366 118.352 190.788 140.992C128.508 159.167 91.9919 198.305 71.6624 239.837C51.3407 281.354 47.1907 325.263 49.6148 353.04L50.611 352.953C48.2003 325.33 52.3299 281.608 72.5605 240.277C92.7832 198.963 129.092 160.038 191.068 141.952ZM227.529 52.8344C205.313 85.9686 163.651 119.265 85.9099 141.952C23.9346 160.038 -12.3746 198.963 -32.5973 240.277C-52.8279 281.608 -56.9575 325.33 -54.5468 352.953L-55.543 353.04C-57.9672 325.263 -53.8171 281.354 -33.4955 239.837C-13.166 198.305 23.3497 159.167 85.6298 140.992C163.208 118.352 204.645 85.1692 226.698 52.2775C248.753 19.3828 251.468 -13.288 251.468 -35H252.468C252.468 -13.1985 249.743 19.7033 227.529 52.8344ZM215.86 141.952C293.601 119.265 335.263 85.9686 357.479 52.8344C379.693 19.7033 382.418 -13.1985 382.418 -35H381.418C381.418 -13.288 378.704 19.3828 356.648 52.2775C334.595 85.1692 293.158 118.352 215.58 140.992C153.3 159.167 116.784 198.305 96.4548 239.837C76.1332 281.354 71.9831 325.263 74.4073 353.04L75.4035 352.953C72.9928 325.33 77.1224 281.608 97.353 240.277C117.576 198.963 153.885 160.038 215.86 141.952ZM251.703 52.8344C229.487 85.9686 187.825 119.265 110.084 141.952C48.1087 160.038 11.7996 198.963 -8.42313 240.277C-28.6537 281.608 -32.7833 325.33 -30.3726 352.953L-31.3689 353.04C-33.793 325.263 -29.6429 281.354 -9.3213 239.837C11.0082 198.305 47.5239 159.167 109.804 140.992C187.382 118.352 228.819 85.1692 250.872 52.2775C272.928 19.3828 275.642 -13.288 275.642 -35H276.642C276.642 -13.1985 273.917 19.7033 251.703 52.8344ZM240.034 141.952C317.775 119.265 359.437 85.9686 381.653 52.8344C403.867 19.7033 406.592 -13.1985 406.592 -35H405.592C405.592 -13.288 402.878 19.3828 380.823 52.2775C358.769 85.1692 317.333 118.352 239.754 140.992C177.474 159.167 140.958 198.305 120.629 239.837C100.307 281.354 96.1573 325.263 98.5814 353.04L99.5776 352.953C97.167 325.33 101.297 281.608 121.527 240.277C141.75 198.963 178.059 160.038 240.034 141.952ZM275.877 52.8344C253.661 85.9686 211.999 119.265 134.258 141.952C72.283 160.038 35.9738 198.963 15.7511 240.277C-4.47949 281.608 -8.60909 325.33 -6.19839 352.953L-7.19461 353.04C-9.61877 325.263 -5.4687 281.354 14.8529 239.837C35.1825 198.305 71.6981 159.167 133.978 140.992C211.556 118.352 252.993 85.1692 275.047 52.2775C297.102 19.3828 299.816 -13.288 299.816 -35H300.816C300.816 -13.1985 298.091 19.7033 275.877 52.8344ZM264.209 141.952C341.95 119.265 383.612 85.9686 405.827 52.8344C428.041 19.7033 430.766 -13.1985 430.766 -35H429.766C429.766 -13.288 427.052 19.3828 404.997 52.2775C382.944 85.1692 341.507 118.352 263.928 140.992C201.648 159.167 165.133 198.305 144.803 239.837C124.482 281.354 120.331 325.263 122.756 353.04L123.752 352.953C121.341 325.33 125.471 281.608 145.701 240.277C165.924 198.963 202.233 160.038 264.209 141.952ZM300.051 52.8344C277.836 85.9686 236.174 119.265 158.433 141.952C96.4572 160.038 60.148 198.963 39.9253 240.277C19.6947 281.608 15.5651 325.33 17.9758 352.953L16.9796 353.04C14.5554 325.263 18.7055 281.354 39.0271 239.837C59.3567 198.305 95.8723 159.167 158.152 140.992C235.731 118.352 277.168 85.1692 299.221 52.2775C321.276 19.3828 323.99 -13.288 323.99 -35H324.99C324.99 -13.1985 322.265 19.7033 300.051 52.8344ZM288.383 141.952C366.124 119.265 407.786 85.9686 430.002 52.8344C452.215 19.7033 454.94 -13.1985 454.94 -35H453.94C453.94 -13.288 451.226 19.3828 429.171 52.2775C407.118 85.1692 365.681 118.352 288.103 140.992C225.823 159.167 189.307 198.305 168.977 239.837C148.656 281.354 144.506 325.263 146.93 353.04L147.926 352.953C145.515 325.33 149.645 281.608 169.876 240.277C190.098 198.963 226.407 160.038 288.383 141.952Z" fill="url(#paint0_linear_433_750)" shape-rendering="crispEdges"/>
</g>
<defs>
<filter id="filter0_d_433_750" x="-84.9551" y="-35" width="543.896" height="396.04" filterUnits="userSpaceOnUse" color-interpolation-filters="sRGB">
<feFlood flood-opacity="0" result="BackgroundImageFix"/>
<feColorMatrix in="SourceAlpha" type="matrix" values="0 0 0 0 0 0 0 0 0 0 0 0 0 0 0 0 0 0 127 0" result="hardAlpha"/>
<feOffset dy="4"/>
<feGaussianBlur stdDeviation="2"/>
<feComposite in2="hardAlpha" operator="out"/>
<feColorMatrix type="matrix" values="0 0 0 0 0 0 0 0 0 0 0 0 0 0 0 0 0 0 0.25 0"/>
<feBlend mode="normal" in2="BackgroundImageFix" result="effect1_dropShadow_433_750"/>
<feBlend mode="normal" in="SourceGraphic" in2="effect1_dropShadow_433_750" result="shape"/>
</filter>
<linearGradient id="paint0_linear_433_750" x1="374.686" y1="-50.2581" x2="44.9928" y2="342.587" gradientUnits="userSpaceOnUse">
<stop stop-color="#8B010B"/>
<stop offset="1" stop-color="white" stop-opacity="0"/>
</linearGradient>
</defs>
</svg>
