<svg width="13" height="18" viewBox="0 0 13 18" fill="none" xmlns="http://www.w3.org/2000/svg">
<path fill-rule="evenodd" clip-rule="evenodd" d="M6.25001 0.872986C4.20801 0.872986 2.53801 2.52599 2.50401 4.55999C2.50101 4.58099 2.50001 4.60199 2.50001 4.62299V5.29399C2.45762 5.29659 2.41247 5.29822 2.36707 5.29987H2.36706C2.29036 5.30264 2.21296 5.30545 2.14701 5.31299C1.56001 5.37899 1.04301 5.52299 0.662006 5.90399C0.280006 6.28499 0.136006 6.80199 0.0690063 7.38999C0.00578391 7.95324 0.00587605 8.62936 0.00599578 9.508L0.00600635 9.62499V12.657C0.00200635 12.688 6.34798e-06 12.719 6.34798e-06 12.75L3.14173e-06 12.8291C-5.15963e-05 13.7262 -9.35403e-05 14.4137 0.0650063 14.985C0.131006 15.573 0.275006 16.089 0.657006 16.47C1.03801 16.852 1.55501 16.995 2.14201 17.061C2.7131 17.1251 3.39928 17.125 4.29491 17.125L4.37501 17.125H4.38101H8.12501C8.13089 17.125 8.13677 17.1247 8.14276 17.1245C8.14901 17.1242 8.15538 17.124 8.16201 17.124H8.20298C9.09706 17.124 9.78769 17.124 10.358 17.06C10.945 16.994 11.461 16.851 11.843 16.469C12.225 16.088 12.369 15.572 12.435 14.984C12.5 14.4056 12.5 13.7069 12.5 12.7941V12.7941V12.753V12.749V9.62799V9.62699V9.62499L12.5 9.54593V9.54585C12.5001 8.64874 12.5001 7.9613 12.435 7.38999C12.369 6.80199 12.225 6.28499 11.843 5.90399C11.461 5.52299 10.945 5.37899 10.358 5.31299C10.293 5.30569 10.2172 5.30246 10.142 5.29925L10.1419 5.29925C10.0934 5.29718 10.0451 5.29512 10 5.29199V4.62299C10 4.59999 9.99901 4.57599 9.99601 4.55299C9.95801 2.52199 8.28901 0.872986 6.25001 0.872986ZM6.25001 2.12299C7.63701 2.12299 8.75001 3.23699 8.75001 4.62299V5.25299C8.65622 5.25299 8.5674 5.25228 8.47607 5.25155H8.47604C8.37943 5.25078 8.28003 5.24999 8.16901 5.24999L8.16636 5.24981C8.15235 5.24887 8.13912 5.24799 8.12501 5.24799H4.38101C4.36987 5.24799 4.35873 5.24885 4.34679 5.24977L4.34401 5.24999C4.23033 5.24999 4.12856 5.25078 4.02972 5.25155C3.93639 5.25228 3.84568 5.25299 3.75001 5.25299V4.62299C3.75001 3.23699 4.86301 2.12299 6.25001 2.12299ZM8.08101 6.49799H4.41201L4.41101 6.49899C4.40601 6.49899 4.40101 6.49924 4.39601 6.49949C4.39101 6.49974 4.38601 6.49999 4.38101 6.49999C3.44601 6.49999 2.75301 6.50399 2.28701 6.55599C1.82101 6.60799 1.63401 6.69999 1.54501 6.78799C1.45701 6.87599 1.36501 7.06399 1.31201 7.52999C1.26001 7.99599 1.25601 8.68899 1.25601 9.62499V12.75C1.25601 12.779 1.25501 12.808 1.25101 12.838C1.25101 13.723 1.25501 14.395 1.30601 14.844C1.35901 15.311 1.45101 15.498 1.53901 15.587C1.62801 15.675 1.81501 15.766 2.28101 15.819C2.74701 15.871 3.44001 15.875 4.37501 15.875H4.38101H8.09301C8.09851 15.8745 8.10376 15.8742 8.10901 15.874C8.11426 15.8737 8.11951 15.8735 8.12501 15.873C9.05901 15.873 9.75201 15.871 10.218 15.819C10.684 15.766 10.872 15.674 10.961 15.585C11.049 15.497 11.141 15.309 11.194 14.843C11.246 14.378 11.25 13.686 11.25 12.753V9.62799V9.62599V9.62499C11.25 8.68899 11.246 7.99599 11.194 7.52999C11.141 7.06399 11.049 6.87599 10.961 6.78799C10.872 6.69899 10.684 6.60799 10.218 6.55599C9.75201 6.50399 9.05901 6.49999 8.12501 6.49999C8.11089 6.49999 8.09766 6.4991 8.08365 6.49816L8.08101 6.49799Z" fill="#151624"/>
<path fill-rule="evenodd" clip-rule="evenodd" d="M6.252 8.99799C5.92 8.99799 5.602 9.12999 5.367 9.36399C5.132 9.59899 5 9.91799 5 10.25C5 10.47 5.058 10.686 5.168 10.876C5.279 11.066 5.437 11.224 5.627 11.334V12.75C5.626 12.833 5.641 12.915 5.672 12.992C5.703 13.069 5.749 13.139 5.807 13.198C5.865 13.257 5.935 13.304 6.011 13.336C6.088 13.368 6.17 13.384 6.252 13.384C6.335 13.384 6.417 13.368 6.494 13.336C6.57 13.304 6.639 13.257 6.697 13.198C6.756 13.139 6.801 13.069 6.832 12.992C6.863 12.915 6.879 12.833 6.877 12.75V11.333C7.068 11.223 7.226 11.065 7.336 10.875C7.446 10.685 7.504 10.47 7.505 10.25C7.505 9.91799 7.373 9.59899 7.138 9.36399C6.903 9.12999 6.585 8.99799 6.252 8.99799Z" fill="#151624"/>
</svg>
